<?xml version="1.0" encoding="utf-8" standalone="yes"?>
<!DOCTYPE svg PUBLIC "-//W3C//DTD SVG 1.1//EN" "http://www.w3.org/Graphics/SVG/1.1/DTD/svg11.dtd">
<svg width="806" height="662" viewBox="0 0 806 662" style="fill:none;stroke:none;fill-rule:evenodd;clip-rule:evenodd;stroke-linecap:round;stroke-linejoin:round;stroke-miterlimit:1.5;" version="1.1" xmlns="http://www.w3.org/2000/svg" xmlns:xlink="http://www.w3.org/1999/xlink"><style id="fontImports">@import url("https://fonts.googleapis.com/css2?family=Roboto:wght@400;700&amp;display=block");</style><rect id="" x="0" y="0" width="806" height="662" style="fill: none;"></rect><g id="items" style="isolation: isolate"><g id="blend" style="mix-blend-mode:normal"><g id="g-root-tf_1hjftkv3nosui-fill" data-item-order="-530640" transform="translate(-9, -9)"></g><g id="g-root-0.cu_sy_1qdtshr3n3r4d-fill" data-item-order="-146156" transform="translate(269, 195.357666015625)"></g><g id="g-root-5.cu_sy_1lymrgf3n3oqu-fill" data-item-order="-146152" transform="translate(250.0430908203125, 145.22216796875)"></g><g id="g-root-4.cu_sy_1ha2m4f3n55hr-fill" data-item-order="-146148" transform="translate(195.47055053710938, 313.86083984375)"></g><g id="g-root-3.cu_sy_18f22yn3n53wg-fill" data-item-order="-146144" transform="translate(339, 391.474853515625)"></g><g id="g-root-2.cu_sy_zjf2pr3n54p5-fill" data-item-order="-146140" transform="translate(467.832763671875, 314.861083984375)"></g><g id="g-root-1.cu_sy_zjf2pr3n54p6-fill" data-item-order="-146136" transform="translate(427.729736328125, 145.22216796875)"></g><g id="g-root-tx_commitme_dkftdr3nos9b-fill" data-item-order="0" transform="translate(99, 111)"><g id="tx_commitme_dkftdr3nos9b-fill" stroke="none" fill="#92bd39"><g><text style="font: bold 20px Roboto, sans-serif; white-space: pre;" font-weight="bold" font-size="20px" font-family="Roboto, sans-serif"><tspan x="22.82" y="34" dominant-baseline="ideographic">Commitment</tspan></text></g></g></g><g id="g-root-tx_excellen_94mb9b3not1l-fill" data-item-order="0" transform="translate(543, 111)"><g id="tx_excellen_94mb9b3not1l-fill" stroke="none" fill="#e0cb15"><g><text style="font: bold 20px Roboto, sans-serif; white-space: pre;" font-weight="bold" font-size="20px" font-family="Roboto, sans-serif"><tspan x="12" y="34" dominant-baseline="ideographic">Excellence</tspan></text></g></g></g><g id="g-root-tx_fullyinv_1ut0wov3nos94-fill" data-item-order="0" transform="translate(75, 147)"><g id="tx_fullyinv_1ut0wov3nos94-fill" stroke="none" fill="#484848"><g><text style="font: 15px Roboto, sans-serif; white-space: pre;" font-size="15px" font-family="Roboto, sans-serif"><tspan x="17.83" y="28" dominant-baseline="ideographic">Fully invested in client </tspan><tspan x="108.88" y="46" dominant-baseline="ideographic">success</tspan></text></g></g></g><g id="g-root-tx_deliveri_zqwuwv3not1g-fill" data-item-order="0" transform="translate(543, 147)"><g id="tx_deliveri_zqwuwv3not1g-fill" stroke="none" fill="#484848"><g><text style="font: 15px Roboto, sans-serif; white-space: pre;" font-size="15px" font-family="Roboto, sans-serif"><tspan x="12" y="28" dominant-baseline="ideographic">Delivering superior </tspan><tspan x="12" y="46" dominant-baseline="ideographic">quality in every project</tspan></text></g></g></g><g id="g-root-moun_1lt0hof3nos90-fill" data-item-order="0" transform="translate(273, 171)"></g><g id="g-root-winn_zjf5vj3nlxql-fill" data-item-order="0" transform="translate(454, 171)"></g><g id="g-root-tx_fosterin_1d2dda73norgi-fill" data-item-order="0" transform="translate(304, 567)"><g id="tx_fosterin_1d2dda73norgi-fill" stroke="none" fill="#484848"><g><text style="font: 15px Roboto, sans-serif; white-space: pre;" font-size="15px" font-family="Roboto, sans-serif"><tspan x="17.58" y="28" dominant-baseline="ideographic">Fostering partnerships </tspan><tspan x="16.3" y="46" dominant-baseline="ideographic">built on mutual respect</tspan></text></g></g></g><g id="g-root-hand_7qcu73nornz-fill" data-item-order="0" transform="translate(340, 267)"></g><g id="g-root-tx_innovati_mg2tmn3norgm-fill" data-item-order="0" transform="translate(63, 315)"><g id="tx_innovati_mg2tmn3norgm-fill" stroke="none" fill="#3cc583"><g><text style="font: bold 20px Roboto, sans-serif; white-space: pre;" font-weight="bold" font-size="20px" font-family="Roboto, sans-serif"><tspan x="21.34" y="34" dominant-baseline="ideographic">Innovation</tspan></text></g></g></g><g id="g-root-tx_integrit_qvwbr33noqod-fill" data-item-order="0" transform="translate(603, 315)"><g id="tx_integrit_qvwbr33noqod-fill" stroke="none" fill="#e55753"><g><text style="font: bold 20px Roboto, sans-serif; white-space: pre;" font-weight="bold" font-size="20px" font-family="Roboto, sans-serif"><tspan x="12" y="34" dominant-baseline="ideographic">Integrity</tspan></text></g></g></g><g id="g-root-tx_embracin_1hi6ven3noqo9-fill" data-item-order="0" transform="translate(15, 351)"><g id="tx_embracin_1hi6ven3noqo9-fill" stroke="none" fill="#484848"><g><text style="font: 15px Roboto, sans-serif; white-space: pre;" font-size="15px" font-family="Roboto, sans-serif"><tspan x="21.92" y="31" dominant-baseline="ideographic">Embracing new ideas </tspan><tspan x="25.09" y="49" dominant-baseline="ideographic">and staying ahead of </tspan><tspan x="121.74" y="67" dominant-baseline="ideographic">trends</tspan></text></g></g></g><g id="g-root-sett_zk1myn3n9ddy-fill" data-item-order="0" transform="translate(219, 339)"></g><g id="g-root-2_1qapi7z3nhs7j-fill" data-item-order="0" transform="translate(507, 339)"></g><g id="g-root-tx_rootedin_146qd1b3nos97-fill" data-item-order="0" transform="translate(603, 351)"><g id="tx_rootedin_146qd1b3nos97-fill" stroke="none" fill="#484848"><g><text style="font: 15px Roboto, sans-serif; white-space: pre;" font-size="15px" font-family="Roboto, sans-serif"><tspan x="12" y="31" dominant-baseline="ideographic">Rooted in transparency, </tspan><tspan x="12" y="49" dominant-baseline="ideographic">honesty, and </tspan><tspan x="12" y="67" dominant-baseline="ideographic">accountability</tspan></text></g></g></g><g id="g-root-1_dgoyv33ndkax-fill" data-item-order="0" transform="translate(363, 435)"></g><g id="g-root-tx_collabor_i09bi73nos8w-fill" data-item-order="0" transform="translate(322, 531)"><g id="tx_collabor_i09bi73nos8w-fill" stroke="none" fill="#1eabda"><g><text style="font: bold 20px Roboto, sans-serif; white-space: pre;" font-weight="bold" font-size="20px" font-family="Roboto, sans-serif"><tspan x="15.7" y="34" dominant-baseline="ideographic">Collaboration</tspan></text></g></g></g><g id="g-root-tx_ddscorev_v3lklb3n55hf-fill" data-item-order="0" transform="translate(322, 39)"><g id="tx_ddscorev_v3lklb3n55hf-fill" stroke="none" fill="#484848"><g><text style="font: bold 20px Roboto, sans-serif; white-space: pre;" font-weight="bold" font-size="20px" font-family="Roboto, sans-serif"><tspan x="12.24" y="34" dominant-baseline="ideographic">DDS Core Values</tspan></text></g></g></g><g id="g-root-tf_1hjftkv3nosui-stroke" data-item-order="-530640" transform="translate(-9, -9)"></g><g id="g-root-0.cu_sy_1qdtshr3n3r4d-stroke" data-item-order="-146156" transform="translate(269, 195.357666015625)"><g id="0.cu_sy_1qdtshr3n3r4d-stroke" fill="none" stroke-linecap="round" stroke-linejoin="round" stroke-miterlimit="4" stroke="#808080" stroke-width="2"><g><path d="M 91.7178 243.7642C 66.0029 235.1144 44.1819 217.9903 29.5746 195.7116M 10.1103 135.1924C 10.037 133.4707 10 131.7397 10 130C 10 101.9785 19.6045 76.2003 35.7012 55.7778M 87.0537 17.9135C 100.3881 12.8012 114.8669 10 130 10C 144.2451 10 157.9105 12.4821 170.5872 17.0375M 224.0516 55.4652C 240.2971 75.937 250 101.8354 250 130C 250 132.0633 249.9479 134.1144 249.845 136.1522M 230.0683 196.2531C 215.1623 218.7219 192.8911 235.8804 166.6988 244.2845"></path></g></g></g><g id="g-root-5.cu_sy_1lymrgf3n3oqu-stroke" data-item-order="-146152" transform="translate(250.0430908203125, 145.22216796875)"><g id="5.cu_sy_1lymrgf3n3oqu-stroke" fill="none" stroke-linecap="round" stroke-linejoin="round" stroke-miterlimit="4" stroke="#92bd39" stroke-width="2"><g><path d="M 105.4124 65.512615C 107.3342 53.379515 104.6273 40.513215 96.8362 29.789715C 81.2542 8.342915 51.2365 3.588615 29.7897 19.170615C 8.3429 34.752615 3.5886 64.770315 19.1706 86.217115C 26.9616 96.940515 38.3615 103.490815 50.4946 105.412415L 97.9035 112.921715L 105.4107 65.523515C 105.4112 65.519915 105.4118 65.516315 105.4124 65.512615Z"></path></g></g></g><g id="g-root-4.cu_sy_1ha2m4f3n55hr-stroke" data-item-order="-146148" transform="translate(195.47055053710938, 313.86083984375)"><g id="4.cu_sy_1ha2m4f3n55hr-stroke" fill="none" stroke-linecap="round" stroke-linejoin="round" stroke-miterlimit="4" stroke="#3cc583" stroke-width="2"><g><path d="M 100.78153 79.8041C 95.20453 90.7497 85.45203 99.5677 72.84583 103.6637C 47.63363 111.8556 20.55423 98.058 12.36223 72.8458C 4.17033 47.6336 17.96793 20.5542 43.18013 12.3622C 55.78623 8.2663 68.85913 9.6677 79.80453 15.2446L 122.57303 37.0358L 100.78653 79.7943C 100.78483 79.7976 100.78313 79.8009 100.78153 79.8041Z"></path></g></g></g><g id="g-root-3.cu_sy_18f22yn3n53wg-stroke" data-item-order="-146144" transform="translate(339, 391.474853515625)"><g id="3.cu_sy_18f22yn3n53wg-stroke" fill="none" stroke-linecap="round" stroke-linejoin="round" stroke-miterlimit="4" stroke="#1eabda" stroke-width="2"><g><path d="M 91.9408 43.9411C 100.6273 52.6274 106 64.6276 106 77.8825C 106 104.3922 84.5097 125.8825 58 125.8825C 31.4903 125.8825 10 104.3922 10 77.8825C 10 64.6277 15.3726 52.6277 24.0589 43.9414L 57.9997 10L 91.9331 43.9333C 91.9356 43.9359 91.9382 43.9385 91.9408 43.9411Z"></path></g></g></g><g id="g-root-2.cu_sy_zjf2pr3n54p5-stroke" data-item-order="-146140" transform="translate(467.832763671875, 314.861083984375)"><g id="2.cu_sy_zjf2pr3n54p5-stroke" fill="none" stroke-linecap="round" stroke-linejoin="round" stroke-miterlimit="4" stroke="#e55753" stroke-width="2"><g><path d="M 52.7683 15.244831C 63.7138 9.667731 76.7868 8.266231 89.393 12.362231C 114.6052 20.554231 128.4029 47.633631 120.2109 72.845831C 112.019 98.058031 84.9396 111.855631 59.7274 103.663731C 47.1213 99.567731 37.3688 90.749931 31.7919 79.804531L 10 37.036431L 52.7585 15.249831C 52.7618 15.248231 52.765 15.246531 52.7683 15.244831Z"></path></g></g></g><g id="g-root-1.cu_sy_zjf2pr3n54p6-stroke" data-item-order="-146136" transform="translate(427.729736328125, 145.22216796875)"><g id="1.cu_sy_zjf2pr3n54p6-stroke" fill="none" stroke-linecap="round" stroke-linejoin="round" stroke-miterlimit="4" stroke="#e0cb15" stroke-width="2"><g><path d="M 10.59443 65.512615C 8.67263 53.379515 11.37953 40.513215 19.17063 29.789715C 34.75263 8.342915 64.77033 3.588615 86.21713 19.170615C 107.66393 34.752615 112.41823 64.770315 96.83623 86.217115C 89.04523 96.940515 77.64533 103.490815 65.51233 105.412415L 18.10333 112.921715L 10.59613 65.523515C 10.59563 65.519915 10.59503 65.516315 10.59443 65.512615Z"></path></g></g></g><g id="g-root-tx_commitme_dkftdr3nos9b-stroke" data-item-order="0" transform="translate(99, 111)"></g><g id="g-root-tx_excellen_94mb9b3not1l-stroke" data-item-order="0" transform="translate(543, 111)"></g><g id="g-root-tx_fullyinv_1ut0wov3nos94-stroke" data-item-order="0" transform="translate(75, 147)"></g><g id="g-root-tx_deliveri_zqwuwv3not1g-stroke" data-item-order="0" transform="translate(543, 147)"></g><g id="g-root-moun_1lt0hof3nos90-stroke" data-item-order="0" transform="translate(273, 171)"><g id="moun_1lt0hof3nos90-stroke" fill="none" stroke-linecap="round" stroke-linejoin="round" stroke-miterlimit="4" stroke="#92bd39" stroke-width="2"><g><path d="M 28 15.992001C 28 18.753424 30.238577 20.992001 33 20.992001C 35.761425 20.992001 38 18.753424 38 15.992001C 38 13.230577 35.761425 10.992001 33 10.992001C 30.238577 10.992001 28 13.230577 28 15.992001ZM 35.599998 29C 35.003777 29.000574 34.438389 28.735113 34.057999 28.275999L 30.200001 23.964001C 29.544329 23.248833 28.583269 22.894917 27.620367 23.014038C 26.657463 23.13316 25.811623 23.710609 25.35 24.563999L 18.369999 37.528C 18.123863 37.979362 17.99654 38.485901 18 39L 18 45.292L 14.316 52.653999C 13.574834 54.136333 14.175668 55.938835 15.658 56.68C 17.140331 57.421165 18.942833 56.820332 19.684 55.338001L 23.684 47.338001C 23.891485 46.922474 23.99966 46.464451 24 46L 24 42.599998L 27.542 43.243999C 28.732454 43.456856 29.678703 44.363678 29.942001 45.544003L 31.077999 50.655998C 31.466311 52.240364 33.049431 53.224094 34.641922 52.870571C 36.234406 52.517048 37.252567 50.955849 36.933998 49.356003L 35.799999 44.234001C 35.01944 40.697075 32.190437 37.975334 28.625999 37.332001L 25.6 36.784L 28.643999 31.129999C 30.370516 33.528305 33.133095 34.964523 36.088001 35L 41 35C 42.656857 35 44 33.656853 44 32C 44 30.343147 42.656857 29 41 29C 41 29 37.365997 29 35.599998 29ZM 16.454 31.139999C 15.8968 32.093868 14.671783 32.415344 13.718 31.858L 12 30.848C 11.540246 30.582092 11.205138 30.144236 11.06857 29.630983C 10.932003 29.117729 11.005193 28.571232 11.272 28.112L 16.822001 18.614C 17.3792 17.660131 18.604218 17.338654 19.557999 17.896L 21.284 18.906C 22.237144 19.463882 22.557686 20.68874 22 21.642ZM 28 53.992001L 25 56.992001L 57 56.992001M 56 11L 52.672001 16C 52.237419 16.651714 52.003754 17.416687 52 18.200001L 52 24.334C 51.999775 25.394779 51.578197 26.412029 50.827999 27.162001L 49.172001 28.818001C 48.421803 29.56797 48.000225 30.58522 48 31.646L 48 40.970001C 48 43.326 44.889999 47.237999 42.279999 48.990002"></path></g></g></g><g id="g-root-winn_zjf5vj3nlxql-stroke" data-item-order="0" transform="translate(454, 171)"><g id="winn_zjf5vj3nlxql-stroke" fill="none" stroke-linecap="round" stroke-linejoin="round" stroke-miterlimit="4" stroke="#e0cb15" stroke-width="2"><g><path d="M 35.178001 20.218L 37.742001 25.5L 42.731998 25.5C 43.249897 25.476582 43.726376 25.781971 43.921391 26.262321C 44.116405 26.74267 43.987656 27.293776 43.599998 27.638L 39.267998 32.164001L 41.667999 37.686001C 41.885559 38.204124 41.747864 38.80331 41.325939 39.174477C 40.904015 39.545647 40.292164 39.605835 39.806 39.323997L 34 36.056L 28.200001 39.323997C 27.713837 39.605835 27.101986 39.545647 26.680059 39.174477C 26.258135 38.80331 26.12044 38.204124 26.337999 37.686001L 28.738001 32.164001L 24.4 27.638C 24.013039 27.294235 23.88414 26.744226 24.078075 26.264328C 24.272011 25.784428 24.746847 25.478397 25.264 25.5L 30.264 25.5L 32.834 20.218C 33.06282 19.782608 33.514141 19.509949 34.005997 19.509949C 34.497856 19.509949 34.949181 19.782608 35.178001 20.217999ZM 45.984001 37.503998L 48.043999 33.073997C 48.226505 32.721664 48.590206 32.500462 48.987 32.500462C 49.383797 32.500462 49.747498 32.721664 49.93 33.074001L 51.984001 37.503998L 55.984001 37.503998C 56.397236 37.487526 56.776333 37.732239 56.931469 38.115601C 57.086609 38.498962 56.98439 38.938446 56.675999 39.214001L 53.200001 42.632L 55.124001 47.049999C 55.298103 47.464905 55.187363 47.94466 54.849018 48.24128C 54.510674 48.537895 54.020554 48.5849 53.632 48.357998L 48.981998 45.743999L 44.334 48.358002C 43.945446 48.5849 43.455322 48.537895 43.116982 48.24128C 42.778637 47.94466 42.667896 47.464905 42.841999 47.049999L 43.944 44.518002M 24.063999 44.542L 25.156 47.049999C 25.330105 47.464905 25.219362 47.94466 24.88102 48.24128C 24.542675 48.537895 24.052551 48.5849 23.664 48.357998L 19.014 45.743999L 14.366 48.358002C 13.977448 48.5849 13.487324 48.537895 13.148981 48.24128C 12.810637 47.94466 12.699896 47.464905 12.874 47.049999L 14.8 42.632L 11.326 39.214001C 11.016157 38.940105 10.912079 38.500931 11.066053 38.117119C 11.220028 37.733303 11.59877 37.487823 12.012 37.503998L 16.012001 37.503998L 18.071999 33.073997C 18.254505 32.721664 18.618204 32.500462 19.014999 32.500462C 19.411797 32.500462 19.775496 32.721664 19.958 33.074001L 22.012001 37.503998"></path></g></g></g><g id="g-root-tx_fosterin_1d2dda73norgi-stroke" data-item-order="0" transform="translate(304, 567)"></g><g id="g-root-hand_7qcu73nornz-stroke" data-item-order="0" transform="translate(340, 267)"><g id="hand_7qcu73nornz-stroke" fill="none" stroke-linecap="round" stroke-linejoin="round" stroke-miterlimit="4" stroke="#4e88e7" stroke-width="2"><g><path d="M 50.703999 52.624001L 69.856003 43.327999C 73.467926 41.556015 77.832436 43.047867 79.603996 46.66L 79.547997 53.860001L 84.875999 57.416L 84.531998 64.015999L 90.300003 68.468002C 92.071976 72.079926 90.580132 76.444435 86.967995 78.215996L 59.716 91.508003L 51.391998 102.136002M 53.784 64.304001C 55.871319 59.539906 53.836578 53.976994 49.167999 51.683998L 34.767998 44.624001L 28.964001 48.560001L 29.836 54.560001L 23.4 59.543999L 23.324001 67.636002L 17.684 71.236L 18.299999 77.744003L 33.316002 85.112C 35.693398 86.278206 38.443901 86.423088 40.930664 85.513115C 43.417427 84.603142 45.424801 82.717216 46.487999 80.292ZM 29.268 83.108002L 14.312 102.127998M 57.976002 93.720001L 64.556 102.127998M 84.068001 79.624001L 101.688004 102.127998M 63.515999 46.259998L 47.411999 38.232002C 45.462318 37.276192 43.106888 38.079826 42.147999 40.028L 41.507999 41.332001C 40.075439 44.256977 41.283981 47.789494 44.208 49.224003L 47.903999 51.040001M 50.848 39.944L 59.352001 35.851997C 61.302605 34.894363 63.66016 35.70052 64.615997 37.652L 65.255997 38.956001C 66.688568 41.880974 65.480026 45.413494 62.556004 46.848L 58.860001 48.66M 57.976002 13.872L 57.976002 21.872M 96.160004 29.688L 90.5 35.344002M 19.792 29.688L 25.448 35.344002"></path></g></g></g><g id="g-root-tx_innovati_mg2tmn3norgm-stroke" data-item-order="0" transform="translate(63, 315)"></g><g id="g-root-tx_integrit_qvwbr33noqod-stroke" data-item-order="0" transform="translate(603, 315)"></g><g id="g-root-tx_embracin_1hi6ven3noqo9-stroke" data-item-order="0" transform="translate(15, 351)"></g><g id="g-root-sett_zk1myn3n9ddy-stroke" data-item-order="0" transform="translate(219, 339)"><g id="sett_zk1myn3n9ddy-stroke" fill="none" stroke-linecap="round" stroke-linejoin="round" stroke-miterlimit="4" stroke="#3cc583" stroke-width="2"><g><path d="M 42.84 48.5L 46 51.68C 46.780075 52.455448 48.039925 52.455448 48.82 51.68L 51.66 48.84C 52.435448 48.059925 52.435448 46.800076 51.66 46.02L 48.48 42.84C 49.398418 40.988853 50.070789 39.025536 50.480003 37L 55 37C 56.104568 37 57 36.104568 57 35L 57 33C 57 31.89543 56.104568 31 55 31L 50.5 31C 50.09079 28.974466 49.418419 27.01115 48.500004 25.16L 51.68 22C 52.455448 21.219925 52.455448 19.960075 51.68 19.18L 48.84 16.32C 48.059925 15.544553 46.800076 15.544553 46.02 16.32L 42.84 19.5C 40.988853 18.581583 39.025536 17.909214 37 17.5L 37 13C 37 11.895431 36.104568 11 35 11L 33 11C 31.89543 11 31 11.895431 31 13L 31 17.5C 28.974466 17.909214 27.01115 18.581583 25.16 19.5L 22 16.32C 21.219925 15.544553 19.960075 15.544553 19.18 16.32L 16.32 19.16C 15.941375 19.535534 15.728403 20.046726 15.728403 20.58C 15.728403 21.113276 15.941375 21.624466 16.32 22L 19.5 25.16C 18.581583 27.01115 17.909214 28.974466 17.5 31.000002L 13 31C 11.895431 31 11 31.89543 11 33L 11 35C 11 36.104568 11.895431 37 13 37L 17.5 37C 17.909214 39.025536 18.581583 40.988853 19.5 42.840004L 16.32 46C 15.544553 46.780075 15.544553 48.039925 16.32 48.82L 19.139999 51.66C 19.515533 52.038624 20.026726 52.251598 20.560001 52.251598C 21.093275 52.251598 21.604465 52.038624 21.98 51.66L 25.16 48.48M 31 51L 37 51M 31 55L 37 55M 34 55L 34 57M 45.740002 34C 45.511883 27.731316 40.270252 22.82008 34 23C 27.729748 22.82008 22.488119 27.731316 22.26 34C 22.471712 39.104187 26.036333 43.451885 31 44.66L 31 47L 37 47L 37 44.740002C 41.99131 43.523701 45.563293 39.134331 45.740002 34Z"></path></g></g></g><g id="g-root-2_1qapi7z3nhs7j-stroke" data-item-order="0" transform="translate(507, 339)"><g id="2_1qapi7z3nhs7j-stroke" fill="none" stroke-linecap="round" stroke-linejoin="round" stroke-miterlimit="4" stroke="#e55753" stroke-width="2"><g><path d="M 15.530001 11.5L 26.73 11.5C 27.787075 11.5 28.644001 12.356927 28.644001 13.414001L 28.643999 22.5L 28.643999 22.5L 13.616 22.5L 13.616 22.5L 13.616 13.414C 13.616 12.356927 14.472927 11.5 15.530001 11.5ZM 28.76 29.5L 13.502 29.5C 12.896271 29.555817 12.303329 29.301926 11.925696 28.825043C 11.548063 28.348162 11.436834 27.712811 11.63 27.136L 13.616 22.5L 28.646 22.5L 30.634001 27.136C 30.827358 27.713171 30.715918 28.348967 30.337788 28.825968C 29.959656 29.302969 29.366066 29.556553 28.76 29.5ZM 15.8 38.5L 27 38.5C 28.057074 38.5 28.914001 39.35693 28.914001 40.414001L 28.914 49.5L 28.914 49.5L 13.878 49.5L 13.878 49.5L 13.878 40.414001C 13.877995 39.904991 14.080747 39.416939 14.441423 39.057762C 14.8021 38.698586 15.290991 38.497871 15.8 38.5ZM 29.021999 56.5L 13.764 56.5C 13.158272 56.555817 12.565329 56.301926 12.187696 55.825043C 11.810063 55.34816 11.698834 54.712811 11.892 54.136002L 13.878 49.5L 28.908001 49.5L 30.896 54.136002C 31.089359 54.713173 30.977919 55.348965 30.599787 55.82597C 30.221657 56.302971 29.628067 56.556553 29.022001 56.5ZM 33.762001 12.5L 46.762001 12.5L 46.762001 15.5M 35.762001 55.5L 46.762001 55.5L 46.762001 52.5M 40.5 31.5L 53.5 31.5C 53.5 31.5 56.5 31.5 56.5 34.5L 56.5 43.5C 56.5 43.5 56.5 46.5 53.5 46.5L 40.5 46.5C 40.5 46.5 37.5 46.5 37.5 43.5L 37.5 34.5C 37.5 34.5 37.5 31.5 40.5 31.5M 40 31.542L 40 28.5C 40 24.634007 43.134007 21.5 47 21.5C 50.865993 21.5 54 24.634007 54 28.5L 54 31.542M 44 39L 46 41L 50 37M 19.838001 53L 22.375999 53M 19.838001 26L 22.375999 26"></path></g></g></g><g id="g-root-tx_rootedin_146qd1b3nos97-stroke" data-item-order="0" transform="translate(603, 351)"></g><g id="g-root-1_dgoyv33ndkax-stroke" data-item-order="0" transform="translate(363, 435)"><g id="1_dgoyv33ndkax-stroke" fill="none" stroke-linecap="round" stroke-linejoin="round" stroke-miterlimit="4" stroke="#1eabda" stroke-width="2"><g><path d="M 11 31L 27 31C 29.209139 31 31 32.790863 31 35L 31 44C 31 46.761425 28.761423 49 26 49L 26 49L 26 51C 26 52.104568 25.104568 53 24 53L 18.5 53L 13.5 49L 11 49M 34 15L 34 21M 46.001999 19.98L 41.757999 24.222M 21.992001 19.964001L 26.236 24.208M 26.634001 42.062C 26.690971 41.314571 26.4263 40.578346 25.906471 40.038277C 25.386642 39.498203 24.66106 39.205612 23.912001 39.234001C 21.284 39.234001 20 40.961998 20 44C 20.021492 45.407993 20.624859 46.744278 21.666811 47.691505C 22.708763 48.638737 24.096336 49.112396 25.5 49L 26 49M 57 31L 41 31C 38.790863 31 37 32.790863 37 35L 37 44C 37 46.761425 39.238579 49 42 49L 42 49L 42 51C 42 52.104568 42.895432 53 44 53L 49.5 53L 54.5 49L 57 49M 41.365997 42.062C 41.309029 41.314571 41.5737 40.578346 42.093529 40.038277C 42.613358 39.498203 43.33894 39.205612 44.088001 39.234001C 46.716 39.234001 48 40.961998 48 44C 47.978508 45.407993 47.375141 46.744278 46.333187 47.691505C 45.291237 48.638737 43.903664 49.112396 42.5 49L 42 49"></path></g></g></g><g id="g-root-tx_collabor_i09bi73nos8w-stroke" data-item-order="0" transform="translate(322, 531)"></g><g id="g-root-tx_ddscorev_v3lklb3n55hf-stroke" data-item-order="0" transform="translate(322, 39)"></g></g></g></svg>